# xmcd CD database file
#
# Track frame offsets:
#	150
#	16795
#	32303
#	42926
#	57712
#	74921
#	88596
#	101777
#	116698
#	129593
#	143265
#	158714
#	169982
#
# Disc length: 2418 seconds
#
# Revision: 1
# Processed by: cddbd v1.5.2PL0 Copyright (c) Steve Scherf et al.
# Submitted via: CDex 1.79
#
DISCID=af09700d
DTITLE=Billy Yates - Harmony Man
DYEAR=2005
DGENRE=Country
TTITLE0=Harmony Man
TTITLE1=I Don`t Think You`re Pretty
TTITLE2=Forever For A While
TTITLE3=Her Only Downfall
TTITLE4=Alone Some
TTITLE5=Brothers
TTITLE6=The Circus Is Over
TTITLE7=I Wouldn`t Want To Be Her Man
TTITLE8=Teach Me Tonight
TTITLE9=The Perfect Woman
TTITLE10=Every Man
TTITLE11=No Part Of
TTITLE12=Talk About Sufferin`
EXTD=YEAR: 2005
EXTT0=
EXTT1=
EXTT2=
EXTT3=
EXTT4=
EXTT5=
EXTT6=
EXTT7=
EXTT8=
EXTT9=
EXTT10=
EXTT11=
EXTT12=
PLAYORDER=
